<?xml version="1.0" standalone="no"?>
<svg viewBox="0 0 200 200" xmlns="http://www.w3.org/2000/svg">
  <path fill="#2196F3" d="M41.8,-65.7C51.6,-66.7,55.1,-50.3,59.1,-36.5C63.1,-22.6,67.4,-11.3,69.4,1.2C71.4,13.6,71.1,27.2,59.2,27.5C47.4,27.7,24.1,14.6,12.4,19.9C0.6,25.1,0.3,48.7,-4.5,56.4C-9.2,64.1,-18.4,56,-25.8,48.2C-33.1,40.4,-38.6,32.9,-42.2,25C-45.8,17,-47.5,8.5,-50.9,-2C-54.4,-12.4,-59.4,-24.8,-54,-29.6C-48.5,-34.4,-32.5,-31.5,-21.8,-29.9C-11,-28.4,-5.5,-28.1,5.2,-37.2C16,-46.3,32,-64.7,41.8,-65.7Z" transform="translate(100 100)" />
</svg>
